<svg id="Layer_1" data-name="Layer 1" xmlns="http://www.w3.org/2000/svg" viewBox="0 0 184.66 55.88">
  <defs>
    <style>
      .cls-1 {
        fill: #225aa8;
      }

      .cls-2 {
        fill: #212121;
      }
    </style>
  </defs>
  <title>TimeLedger-logo</title>
  <g id="TL-logo_expanded" data-name="TL-logo expanded">
    <g>
      <path class="cls-1" d="M16.13,18.3v3.25h-6V39.37H5.93V21.55H0V18.3Z"/>
      <path class="cls-1" d="M23,18.3V39.37H18.75V18.3Z"/>
      <path class="cls-1" d="M27.18,18.3h5.51l5.38,15.52h.09L43.57,18.3H49.1V39.37H44.87V33.08l.4-9.3h-.08l-5.64,15.6H36.72L31.09,23.82H31l.4,9.25v6.29H27.18Z"/>
      <path class="cls-1" d="M66,26.84v3.27H57.27v6H67.48v3.25H53V18.3H67.45v3.25H57.27v5.29Z"/>
      <path class="cls-2" d="M74.28,18.3V36.12h9.38v3.25H70.05V18.3Z"/>
      <path class="cls-2" d="M99.05,26.84v3.27H90.32v6h10.21v3.25H86.09V18.3H100.5v3.25H90.32v5.29Z"/>
      <path class="cls-2" d="M110.34,39.37H103.1V18.3h7.24a8.72,8.72,0,0,1,6.39,2.45,8.53,8.53,0,0,1,2.49,6.35v3.49a8.48,8.48,0,0,1-2.49,6.33A8.72,8.72,0,0,1,110.34,39.37Zm-.21-17.82h-2.8V36.12h2.8a4.43,4.43,0,0,0,3.55-1.51,6,6,0,0,0,1.29-4V27.07a6,6,0,0,0-1.29-4A4.43,4.43,0,0,0,110.13,21.55Z"/>
      <path class="cls-2" d="M138.72,28.58v7.94a7.71,7.71,0,0,1-3.08,2.29,12,12,0,0,1-4.88.9,8.61,8.61,0,0,1-6.32-2.4A8.35,8.35,0,0,1,122,31.07V26.66a8.53,8.53,0,0,1,2.35-6.24,8.18,8.18,0,0,1,6.1-2.39,8.52,8.52,0,0,1,5.83,1.83,6.44,6.44,0,0,1,2.12,5l0,.08h-4a4.15,4.15,0,0,0-1.11-2.68,3.84,3.84,0,0,0-2.83-.95,3.75,3.75,0,0,0-3.06,1.48,6,6,0,0,0-1.19,3.87v4.44A5.93,5.93,0,0,0,127.44,35a4.12,4.12,0,0,0,3.32,1.48,5.26,5.26,0,0,0,3.73-1.05V31.5h-3.73V28.58Z"/>
      <path class="cls-2" d="M155.31,26.84v3.27h-8.74v6h10.21v3.25H142.34V18.3h14.41v3.25H146.57v5.29Z"/>
      <path class="cls-2" d="M163.59,39.38h-4.23V18.32h8A8.69,8.69,0,0,1,173,20a5.56,5.56,0,0,1,2,4.58q0,3.2-3.36,4.68c2.34.7,3.5,2.37,3.5,5V35.8a7.12,7.12,0,0,0,.26,1.92,2.58,2.58,0,0,0,.79,1.34v.31h-4.36c-.61-.49-.92-1.7-.92-3.6v-1.5a3.31,3.31,0,0,0-.86-2.45,3.22,3.22,0,0,0-2.43-.88l-4,0Zm0-17.83v6.14h3.65c2.36,0,3.54-1,3.54-3a3,3,0,0,0-.89-2.31,3.6,3.6,0,0,0-2.57-.84Z"/>
    </g>
    <g>
      <path class="cls-2" d="M179.88,18v.59h-1.09v3.25H178V18.62h-1.08V18Z"/>
      <path class="cls-2" d="M180.3,18h1l1,2.83h0l1-2.83h1v3.84h-.77V20.72L183.6,19h0l-1,2.84H182L181,19h0l.07,1.68v1.15h-.77Z"/>
    </g>
    <g>
      <path class="cls-1" d="M34,3.38l4.47,19.5L42.89,3.45A25,25,0,0,1,60.06,15.88h3.39a28,28,0,0,0-50.42,0h3.4A25,25,0,0,1,34,3.38Z"/>
      <path class="cls-1" d="M38.24,52.88a24.91,24.91,0,0,1-20.66-11H14a27.92,27.92,0,0,0,48.41,0H58.91A24.93,24.93,0,0,1,38.24,52.88Z"/>
    </g>
  </g>
</svg>
