 <svg xmlns="http://www.w3.org/2000/svg" xmlns:xlink="http://www.w3.org/1999/xlink" viewBox="0 0 1600 377.895">
    <defs>
        <style>
            .a,
            .d {
                opacity: 0.5;
            }

            .a {
                fill: url(#a);
            }

            .b {
                opacity: 0.7;
                fill: url(#b);
            }

            .b,
            .c {
            mix-blend-mode: multiply;
                isolation: isolate;
            }

            .c {
                opacity: 0.8;
                fill: url(#c);
            }

            .e {
                fill: none;
                stroke: #0083cd;
                stroke-miterlimit: 10;
                stroke-width: 0.893px;
            }

            .f {
                fill: url(#d);
            }

            .g {
                fill: url(#e);
            }

        </style>
        <linearGradient id="a" x1="1.445" y1="0.695" x2="2.427" y2="0.342" gradientUnits="objectBoundingBox">
            <stop offset="0" stop-color="#95efff" />
            <stop offset="0.602" stop-color="#00efff" />
            <stop offset="1" stop-color="#00adee" stop-opacity="0.302" />
        </linearGradient>
        <linearGradient id="b" x1="0.035" y1="0.74" x2="1.013" y2="0.306" gradientUnits="objectBoundingBox">
            <stop offset="0" stop-color="#cff7fe" />
            <stop offset="0.323" stop-color="#95efff" />
            <stop offset="0.674" stop-color="#00adee" />
            <stop offset="1" stop-color="#0083cd" />
        </linearGradient>
        <linearGradient id="c" x1="0.973" y1="0.5" x2="0.387" y2="0.563" xlink:href="#b" />
        <linearGradient id="d" x1="0.5" x2="1.036" y2="1.128" gradientUnits="objectBoundingBox">
            <stop offset="0" stop-color="#cff7fe" stop-opacity="0" />
            <stop offset="0.323" stop-color="#95efff" />
            <stop offset="0.674" stop-color="#00adee" />
            <stop offset="1" stop-color="#0083cd" stop-opacity="0" />
        </linearGradient>
        <linearGradient id="e" x1="0.89" y1="0.043" x2="0.301" y2="1.59" xlink:href="#d" />
    </defs>
    <g transform="translate(0 -711.554)">
        <g transform="translate(0 834.859)">
            <path class="a" d="M0,369.663s148.337,33.83,297.67,20.942S563.078,335.719,754.2,364.831c210.261,32.024,310.21,46.069,528.757,9.664C1429.069,350.16,1600,384.7,1600,384.7V574.151H0Z" transform="translate(0 -320.267)" />
            <path class="b" d="M0,369.663s148.337,33.83,297.67,20.942S563.078,335.719,754.2,364.831c210.261,32.024,310.21,46.069,528.757,9.664C1429.069,350.16,1600,384.7,1600,384.7V574.151H0Z" transform="translate(0 -320.267)" />
            <path class="c" d="M0,369.663s148.337,33.83,297.67,20.942S563.078,335.719,754.2,364.831c210.261,32.024,310.21,46.069,528.757,9.664C1429.069,350.16,1600,384.7,1600,384.7V574.151H0Z" transform="translate(0 -320.267)" />
        </g>
        <g class="d" transform="translate(120.815 712)">
            <circle class="e" cx="120" cy="120" r="120" />
            <ellipse class="f" cx="112.971" cy="112.736" rx="112.971" ry="112.736" transform="translate(7.029 7.264)" />
        </g>
        <g class="d" transform="translate(1365.937 831.859)">
            <ellipse class="e" cx="41.582" cy="41.625" rx="41.582" ry="41.625" />
            <ellipse class="g" cx="39.237" cy="39.201" rx="39.237" ry="39.201" transform="translate(2.345 2.424)" />
        </g>
    </g>
</svg>