<svg xmlns="http://www.w3.org/2000/svg" width="14.875" height="14" viewBox="0 0 14.875 14"><defs><style>.a{fill:#76dcbe;}.b{fill:#ffd100;}.c{fill:#fff;}</style></defs><g transform="translate(-108 -11.75)"><path class="a" d="M6.125-4.375v-6.488a.438.438,0,0,0-.488-.439A6.558,6.558,0,0,0,0-4.584,6.644,6.644,0,0,0,6.645,1.749a6.512,6.512,0,0,0,3.7-1.2.434.434,0,0,0,.043-.658Z" transform="translate(108 24)"/><path class="b" d="M14.432-4.375H7.943L12.264-.054a.439.439,0,0,0,.607.019,6.549,6.549,0,0,0,2-3.852A.438.438,0,0,0,14.432-4.375Z" transform="translate(108 24)"/><path class="c" d="M14-6.147a6.578,6.578,0,0,0-6.1-6.1.44.44,0,0,0-.459.443v6.118h6.119A.44.44,0,0,0,14-6.147Z" transform="translate(108 24)"/></g></svg>